<svg width="570" height="469" viewBox="0 0 570 469" fill="none" xmlns="http://www.w3.org/2000/svg">
<path d="M438.527 67.0172C386.619 116.063 335.671 76.6529 312.313 49.6346C288.955 22.6163 302.031 18.2213 353.939 -30.8248C405.847 -79.871 466.863 -97.7281 490.221 -70.7098C513.579 -43.6914 490.435 17.971 438.527 67.0172Z" fill="black"/>
<path d="M438.527 67.0172C386.619 116.063 335.671 76.6529 312.313 49.6346C288.955 22.6163 302.031 18.2213 353.939 -30.8248C405.847 -79.871 466.863 -97.7281 490.221 -70.7098C513.579 -43.6914 490.435 17.971 438.527 67.0172Z" fill="black"/>
<path d="M438.527 67.0172C386.619 116.063 335.671 76.6529 312.313 49.6346C288.955 22.6163 302.031 18.2213 353.939 -30.8248C405.847 -79.871 466.863 -97.7281 490.221 -70.7098C513.579 -43.6914 490.435 17.971 438.527 67.0172Z" fill="black"/>
<path d="M351.533 30.9476C353.605 102.17 370.93 45.1207 335.233 47.8787C299.537 50.6366 300.33 36.888 225.315 21.6349C223.242 -49.5871 247.449 -90.2595 283.146 -93.0174C318.842 -95.7754 349.46 -40.2743 351.533 30.9476Z" fill="black"/>
<path d="M351.533 30.9476C353.605 102.17 370.93 45.1207 335.233 47.8787C299.537 50.6366 300.33 36.888 225.315 21.6349C223.242 -49.5871 247.449 -90.2595 283.146 -93.0174C318.842 -95.7754 349.46 -40.2743 351.533 30.9476Z" fill="black"/>
<path d="M351.533 30.9476C353.605 102.17 370.93 45.1207 335.233 47.8787C299.537 50.6366 300.33 36.888 225.315 21.6349C223.242 -49.5871 247.449 -90.2595 283.146 -93.0174C318.842 -95.7754 349.46 -40.2743 351.533 30.9476Z" fill="black"/>
<path d="M153.666 -13.7559L427.104 107.34C462.958 123.219 479.151 165.156 463.273 201.009L350.23 456.262L76.7922 335.166C40.9387 319.287 24.7455 277.35 40.6238 241.497L153.666 -13.7559Z" stroke="black" stroke-width="18"/>
<path d="M238.025 106.811L158.885 285.511L135.587 275.193L214.727 96.4935L238.025 106.811ZM417.923 186.482L408.286 208.243L346.585 180.918L277.083 337.857L253.785 327.539L323.288 170.601L261.588 143.276L271.225 121.514L417.923 186.482Z" fill="black"/>
</svg>
